<svg xmlns="http://www.w3.org/2000/svg" width="16" height="16" viewBox="0 0 16 16">
  <g fill="none" fill-rule="evenodd">
    <path fill="#6E6E6E" d="M11.7929675,7 L10.2092415,7 C9.6158541,5.53408483 8.17868878,4.5 6.5,4.5 C4.290861,4.5 2.5,6.290861 2.5,8.5 C2.5,10.709139 4.290861,12.5 6.5,12.5 C7.03045022,12.5 7.53678428,12.3967464 8,12.2092415 L8,13.7929675 C7.52316821,13.9278328 7.02001188,14 6.5,14 C3.46243388,14 1,11.5375661 1,8.5 C1,5.46243388 3.46243388,3 6.5,3 C7.68983367,3 8.79142261,3.37782057 9.69133816,4.02003305 L10.6127925,3.09857866 L11.602742,4.08852814 L10.719427,4.97184317 C11.2092307,5.5569888 11.5795798,6.24554338 11.7929675,7 Z M4,1 L9,1 L9,2 L4,2 L4,1 Z M5.80000019,6 L7.20000017,6 L7.20000017,9 L5.80000019,9 L5.80000019,6 Z"/>
    <path fill="#59A869" d="M373 170h686v-170h-907v170q187 197 327 348t193 213q100 122 135 197.5t35 154.5q0 125 -73.5 196t-201.5 71q-91 0 -191 -33t-212 -100v204q103 49 202.5 74t196.5 25q219 0 352.5 -116.5t133.5 -305.5q0 -96 -44.5 -192t-144.5 -212q-56 -65 -162.5 -180t-324.5 -344z "/>
    <path fill="#59A869" d="M207 1493h756v-170h-572v-367q43 16 86.5 23.5t87.5 7.5q232 0 368 -137t136 -371q0 -236 -142.5 -372t-389.5 -136q-119 0 -217.5 16t-176.5 48v205q92 -50 185 -74.5t190 -24.5q167 0 257.5 88t90.5 250q0 160 -93.5 249t-260.5 89q-81 0 -158 -18.5t-147 -55.5v750z " />
    <polygon fill="#59A869" points="9 7 16 11.5 9 16"/>
  </g>
</svg>
